<svg width="16" height="16" viewBox="0 0 16 16" fill="none" xmlns="http://www.w3.org/2000/svg">
<g clip-path="url(#clip0_911_2)">
<path fill-rule="evenodd" clip-rule="evenodd" d="M5.42481 10.0977C4.95147 9.52634 4.66081 8.79967 4.66081 7.99967C4.66081 6.15967 6.15481 4.66634 7.99414 4.66634C8.79481 4.66634 9.52147 4.95634 10.0928 5.42967L11.3575 4.16501C10.3968 3.67301 9.27614 3.33301 8.00081 3.33301C3.92414 3.33301 1.31747 6.90301 0.772807 7.72234C1.12547 8.27834 2.35881 10.0737 4.18147 11.341L5.42481 10.0977ZM9.62081 5.90167C9.17214 5.54834 8.61081 5.33301 7.99414 5.33301C6.52281 5.33301 5.32747 6.52767 5.32747 7.99967C5.32747 8.61501 5.54347 9.17634 5.89681 9.62567L9.62081 5.90167ZM14.6608 1.80434L1.79947 14.6663L1.32747 14.195L3.69281 11.8297C2.16081 10.755 0.870141 9.23967 -0.00585938 7.71701C1.60614 4.98167 4.62281 2.66634 8.00081 2.66634C9.37747 2.66634 10.6815 3.04367 11.8555 3.66701L14.1895 1.33301L14.6608 1.80434ZM13.0175 4.39034L12.5281 4.87967C14.0188 5.95901 14.9468 7.28234 15.2355 7.72901C14.7428 8.59767 12.2048 12.6663 8.00081 12.6663C7.05081 12.6663 6.16814 12.421 5.36681 12.041L4.86814 12.5397C5.85147 13.0343 6.90614 13.333 8.00081 13.333C11.5168 13.333 14.5061 10.6623 16.0001 7.70901C15.2755 6.44834 14.2468 5.28434 13.0175 4.39034ZM10.6608 7.99967C10.6608 7.63034 10.5855 7.27834 10.4495 6.95834L10.9388 6.46901C11.1795 6.92901 11.3275 7.44501 11.3275 7.99967C11.3275 9.83901 9.83414 11.333 7.99414 11.333C7.43947 11.333 6.92481 11.1843 6.46414 10.9443L6.95347 10.4543C7.27347 10.5903 7.62481 10.6663 7.99414 10.6663C9.46614 10.6663 10.6608 9.47167 10.6608 7.99967Z" fill="white"/>
</g>
<defs>
<clipPath id="clip0_911_2">
<rect width="16" height="16" fill="white"/>
</clipPath>
</defs>
</svg>
