<svg width="16" height="16" viewBox="0 0 16 16" fill="none" xmlns="http://www.w3.org/2000/svg">
<g clip-path="url(#clip0_830_336)">
<path fill-rule="evenodd" clip-rule="evenodd" d="M8.00667 13.3337C4.63 13.3337 1.616 10.5263 0 7.71766C1.612 4.98233 4.62867 2.66699 8.00667 2.66699C11.43 2.66699 14.43 4.96899 16.006 7.70966C14.512 10.663 11.522 13.3337 8.00667 13.3337ZM0.778667 7.72299C1.34067 8.61033 4.124 12.667 8.00667 12.667C12.21 12.667 14.748 8.59833 15.2407 7.73033C14.726 6.93166 12.17 3.33366 8.00667 3.33366C3.92933 3.33366 1.32333 6.90366 0.778667 7.72299ZM8 4.66699C9.84 4.66699 11.3333 6.16033 11.3333 8.00033C11.3333 9.84033 9.84 11.3337 8 11.3337C6.16 11.3337 4.66667 9.84033 4.66667 8.00033C4.66667 6.16033 6.16 4.66699 8 4.66699ZM8 5.33366C9.472 5.33366 10.6667 6.52833 10.6667 8.00033C10.6667 9.47233 9.472 10.667 8 10.667C6.528 10.667 5.33333 9.47233 5.33333 8.00033C5.33333 6.52833 6.528 5.33366 8 5.33366Z" fill="white"/>
</g>
<defs>
<clipPath id="clip0_830_336">
<rect width="16" height="16" fill="white"/>
</clipPath>
</defs>
</svg>
