<svg width="43" height="32" viewBox="0 0 43 32" fill="none" xmlns="http://www.w3.org/2000/svg">
<path fill-rule="evenodd" clip-rule="evenodd" d="M26.4163 0H0.583008V32H18.6663L26.4163 24V0ZM17.3747 30.6667H1.87467V1.33333H25.1247V22.6667H17.3747V30.6667ZM18.6663 24H24.5899L18.6663 30.1147V24ZM14.7913 25.3333H4.45801V26.6667H14.7913V25.3333ZM14.7913 21.3333H4.45801V22.6667H14.7913V21.3333ZM22.5413 18.6667V17.3333H4.45801V18.6667H22.5413ZM22.5413 13.3333H17.3747V14.6667H22.5413V13.3333ZM14.7836 14.6667H4.46188L4.45801 13.6147C4.45413 12.6547 4.45026 11.4613 6.15526 11.0547C8.0708 10.6 7.75176 10.4973 7.65101 10.304C6.25859 7.65333 6.73392 6.07333 7.1408 5.36667C7.64197 4.49867 8.54742 4 9.62467 4C10.6929 4 11.5919 4.49067 12.0918 5.348C12.7957 6.55333 12.62 8.31067 11.6022 10.2987C11.4666 10.56 11.3503 10.6387 13.0476 11.044C14.7978 11.46 14.7939 12.66 14.7913 13.6253L14.7836 14.6667ZM5.74967 13.3333H13.4997C13.4906 12.604 13.4093 12.4987 12.8022 12.3547C11.6978 12.0907 10.698 11.8533 10.3467 11.0587C10.1633 10.644 10.2008 10.1787 10.4591 9.67333C11.247 8.13867 11.4382 6.812 10.9848 6.03467C10.6283 5.424 9.97988 5.33333 9.62467 5.33333C9.00467 5.33333 8.51772 5.58667 8.25163 6.04933C7.79697 6.836 7.99201 8.156 8.78638 9.668C9.04988 10.1707 9.09122 10.6373 8.90909 11.0533C8.56163 11.8507 7.57092 12.0853 6.52338 12.336C5.84526 12.4973 5.75742 12.6053 5.74967 13.3333ZM22.5413 10.6667V9.33333H17.3747V10.6667H22.5413ZM22.5413 5.33333H17.3747V6.66667H22.5413V5.33333Z" fill="white"/>
<path d="M38.5 23.197L38.1341 23.5991L38.5 24L38.8659 23.5991L38.5 23.197ZM38.8659 22.795L34.7317 18.2519L34 19.056L38.1341 23.5991L38.8659 22.795ZM38.8659 23.5991L43 19.056L42.2683 18.2519L38.1341 22.795L38.8659 23.5991ZM39.0168 23.197V9H37.9832V23.197H39.0168Z" fill="white"/>
</svg>
