<svg width="60" height="60" viewBox="0 0 60 60" fill="none" xmlns="http://www.w3.org/2000/svg">
<path d="M59.3766 46.1433C57.2391 46.6871 55.9172 46.1668 54.7313 44.3855C52.0687 40.3965 49.1297 36.5902 46.2938 32.7136C45.9281 32.2121 45.5484 31.7199 45.075 31.0964C41.7188 35.6246 38.3672 39.9371 35.2219 44.423C34.0969 46.0261 32.9156 46.7246 30.8156 46.1574L43.4344 29.2214L31.6875 13.9261C33.7078 13.5324 35.1047 13.7339 36.3422 15.5433C39.075 19.5371 42.0891 23.3386 45.0937 27.3605C48.1172 23.3527 51.0938 19.5464 53.9062 15.5902C55.0359 13.9871 56.25 13.3777 58.2797 13.9683C56.7422 16.0074 55.2375 18.0136 53.7234 20.0058C51.6797 22.6918 49.6734 25.4105 47.5547 28.0402C46.8 28.9777 46.9219 29.5871 47.5969 30.473C51.5156 35.6246 55.3875 40.8277 59.3766 46.1433ZM0.623438 28.9402C0.960938 27.248 1.18594 25.523 1.65469 23.8636C4.46719 13.8183 15.9984 9.64176 23.9203 15.8668C28.5609 19.5183 29.7141 24.6652 29.4844 30.4683H3.32812C2.93438 40.8793 10.4297 47.1652 19.9828 43.9589C23.3344 42.8339 25.3078 40.2089 26.2969 36.9277C26.7984 35.2824 27.6281 35.0246 29.175 35.4933C28.3828 39.5996 26.5875 43.0308 22.8375 45.1777C17.2125 48.3933 9.18281 47.3527 4.95937 42.8855C2.46562 40.2605 1.40625 36.9933 0.9375 33.4636C0.867188 32.9011 0.721875 32.348 0.609375 31.7902C0.61875 30.8402 0.623438 29.8902 0.623438 28.9402ZM3.375 28.2418H27.0141C26.8594 20.7136 22.1719 15.3652 15.7641 15.3183C8.73281 15.2621 3.67969 20.4839 3.375 28.2418Z" fill="white"/>
</svg>
