<svg width="60" height="60" viewBox="0 0 60 60" fill="none" xmlns="http://www.w3.org/2000/svg">
<path d="M21.9062 58.5033C27.1125 58.5033 31.3125 54.2936 31.3125 49.0754V39.6475H21.9062C16.7 39.6475 12.5 43.8571 12.5 49.0754C12.5 54.2936 16.7 58.5033 21.9062 58.5033Z" fill="white"/>
<path d="M12.5 30.2189C12.5 25.0007 16.7 20.791 21.9062 20.791H31.3125V39.6469H21.9062C16.7 39.6469 12.5 35.4372 12.5 30.2189Z" fill="white"/>
<path d="M12.5 11.3635C12.5 6.14522 16.7 1.93555 21.9062 1.93555H31.3125V20.7914H21.9062C16.7 20.7914 12.5 16.5817 12.5 11.3635Z" fill="white"/>
<path d="M31.3125 1.93555H40.7188C45.925 1.93555 50.125 6.14522 50.125 11.3635C50.125 16.5817 45.925 20.7914 40.7188 20.7914H31.3125V1.93555Z" fill="white"/>
<path d="M50.125 30.2189C50.125 35.4372 45.925 39.6469 40.7188 39.6469C35.5125 39.6469 31.3125 35.4372 31.3125 30.2189C31.3125 25.0007 35.5125 20.791 40.7188 20.791C45.925 20.791 50.125 25.0007 50.125 30.2189Z" fill="white"/>
</svg>
