<svg width="60" height="60" viewBox="0 0 60 60" fill="none" xmlns="http://www.w3.org/2000/svg">
<g clip-path="url(#clip0_830_281)">
<path d="M58.4707 27.3646L32.6351 1.52992C31.1482 0.0421094 28.7351 0.0421094 27.2459 1.52992L21.8815 6.89523L28.6868 13.7005C30.2688 13.1666 32.082 13.5248 33.3424 14.7852C34.6095 16.0537 34.9648 17.8823 34.4178 19.4695L40.9765 26.0287C42.5632 25.4816 44.3946 25.8351 45.6612 27.1045C47.4331 28.8749 47.4331 31.7451 45.6612 33.5165C45.2401 33.9378 44.7402 34.2719 44.1899 34.4999C43.6397 34.728 43.0499 34.8453 42.4542 34.8453C41.8586 34.8453 41.2688 34.728 40.7186 34.4999C40.1683 34.2719 39.6684 33.9378 39.2473 33.5165C38.6147 32.8835 38.1834 32.0775 38.0078 31.1999C37.8323 30.3223 37.9202 29.4125 38.2606 28.5848L32.1443 22.4685L32.1434 38.5659C32.5871 38.7844 32.9923 39.0738 33.3429 39.4227C35.1138 41.1932 35.1138 44.0624 33.3429 45.8366C31.5715 47.6071 28.7004 47.6071 26.9309 45.8366C25.1599 44.0629 25.1599 41.1937 26.9309 39.4227C27.3552 38.9978 27.8598 38.6616 28.4154 38.4337V22.1873C27.8594 21.96 27.3546 21.6235 26.9309 21.1977C25.5893 19.8571 25.2663 17.8884 25.9545 16.2402L19.2453 9.53102L1.53025 27.2451C0.815555 27.96 0.414062 28.9295 0.414062 29.9404C0.414063 30.9513 0.815555 31.9208 1.53025 32.6357L27.3663 58.4704C28.8542 59.9582 31.2663 59.9582 32.7565 58.4704L58.4712 32.7557C59.1857 32.0406 59.5871 31.071 59.587 30.0601C59.5869 29.0491 59.1854 28.0796 58.4707 27.3646Z" fill="white"/>
</g>
<defs>
<clipPath id="clip0_830_281">
<rect width="60" height="60" fill="white"/>
</clipPath>
</defs>
</svg>
