<svg width="60" height="60" viewBox="0 0 60 60" fill="none" xmlns="http://www.w3.org/2000/svg">
<path d="M0.9375 0.46875V60.4687H60.9375V0.46875H0.9375ZM32.6746 51.595C31.789 53.3945 30.0985 54.5767 28.1396 55.1475C25.1295 55.8387 22.2505 55.4446 20.1087 54.1592C18.6754 53.2798 17.5561 51.9262 16.7962 50.3667L21.3658 47.5683C21.4057 47.5851 21.5257 47.802 21.686 48.0823C22.2687 49.0587 22.7713 49.7499 23.7591 50.2351C24.7297 50.5663 26.8604 50.778 27.6831 49.0702C28.1857 48.2014 28.0258 45.4088 28.0258 42.319C28.0253 37.4638 28.0479 32.6287 28.0479 27.8287H33.6682C33.6682 33.1087 33.697 38.1094 33.6682 43.2617C33.6802 46.4201 33.9543 49.2358 32.6746 51.595ZM55.9901 50.0071C54.0365 56.6897 43.1444 56.9067 38.7917 52.4916C37.8721 51.4524 37.2956 50.9095 36.7469 49.71C39.0601 48.3795 39.0601 48.3795 41.3108 47.0772C42.5333 48.9564 43.6637 49.9899 45.6975 50.4128C48.4565 50.7497 51.2324 49.8017 50.6098 46.8713C49.97 44.478 44.9602 43.8958 41.5508 41.3364C38.0895 39.0118 37.2783 33.3631 40.1228 30.1356C41.0708 28.9419 42.6874 28.051 44.3837 27.6228L46.154 27.3939C49.5529 27.3252 51.6773 28.2228 53.2369 29.9643C53.6708 30.4039 54.025 30.8782 54.6874 31.9059C52.8769 33.0598 52.8826 33.0487 50.2892 34.7278C49.7353 33.5345 48.8161 32.7857 47.8445 32.4603C46.3364 32.0033 44.4346 32.5001 44.0401 34.0937C43.9033 34.5848 43.9316 35.0417 44.149 35.8529C44.7601 37.2464 46.8106 37.8521 48.65 38.6974C53.9449 40.8449 55.7329 43.1475 56.1725 45.8883C56.5959 48.2479 56.0703 49.7787 55.9901 50.0071V50.0071Z" fill="white"/>
</svg>
