<svg width="60" height="60" viewBox="0 0 60 60" fill="none" xmlns="http://www.w3.org/2000/svg">
<path d="M44.1082 23.6097L57.5 29.4744V29.1701C57.3075 28.5062 56.73 27.9252 55.5751 26.7634L50.0754 21.2307L44.3831 23.6374L44.1082 23.6097ZM30.5513 16.8599C30.779 17.2611 30.9284 17.7024 30.9913 18.16L39.2409 21.7286C39.4866 21.5612 39.7552 21.4307 40.0383 21.3413L41.3583 13.0423L35.8586 7.5096L30.4963 16.6385C30.4963 16.6385 30.4963 16.7769 30.5513 16.8599ZM26.179 16.1959C26.5589 15.8872 27.0075 15.6757 27.4864 15.5793C27.9652 15.483 28.4602 15.5047 28.9289 15.6427H29.0664L35.0061 6.40306L33.1912 4.57727C32.0362 3.41541 31.4588 2.83447 30.7988 2.64083C30.2364 2.45306 29.6288 2.45306 29.0664 2.64083C28.4064 2.83447 27.8289 3.41541 26.674 4.57727L18.4244 12.8763C19.2769 13.2636 25.2991 15.8086 26.069 16.1683L26.179 16.1959ZM17.5994 30.8299H18.3419C18.6071 30.8031 18.8742 30.8031 19.1394 30.8299L25.6841 20.6497V20.4838C25.3448 20.1478 25.098 19.7291 24.9678 19.2684C24.8377 18.8077 24.8286 18.321 24.9416 17.8557L21.7517 16.1959L17.077 14.1765L10.7523 20.6497L17.6544 30.7746L17.5994 30.8299ZM38.5534 24.08V23.8587C38.5381 23.7301 38.5381 23.6001 38.5534 23.4714L30.6888 19.9582H30.5513C30.2868 20.3598 29.9271 20.6889 29.5047 20.9158C29.0822 21.1428 28.6103 21.2605 28.1314 21.2583H27.664C27.664 21.2583 27.5265 21.2583 27.499 21.3967L21.0093 31.4108V31.5492L38.4159 24.08C38.4159 24.08 38.5534 24.1353 38.5534 24.08ZM42.2932 21.5626C42.5634 21.6892 42.8063 21.8678 43.0082 22.0882L48.5079 19.7645L43.3107 14.5914L42.2107 21.4243L42.2932 21.5626ZM35.996 36.8882C36.2138 36.4794 36.5396 36.139 36.9375 35.9047C37.3354 35.6704 37.79 35.5512 38.2509 35.5604V35.422L39.7359 26.0995L39.4884 25.8781L21.7517 33.209C21.8377 33.454 21.9111 33.7033 21.9717 33.9559L35.996 36.8882ZM35.8861 38.6863L21.5318 35.5604V35.7263L34.0436 54.9248L35.1986 53.7353C35.6111 51.1902 37.151 41.757 37.3435 40.6781C36.9491 40.5026 36.6072 40.2265 36.3515 39.8771C36.0959 39.5278 35.9354 39.1173 35.8861 38.6863ZM40.4233 39.5716C40.1633 39.9026 39.8221 40.16 39.4334 40.3185L37.6735 51.2179L47.683 41.0931L40.4233 39.5716ZM43.3657 25.3802C43.3399 25.3679 43.3117 25.3615 43.2832 25.3615C43.2547 25.3615 43.2265 25.3679 43.2007 25.3802C42.7862 25.9033 42.1836 26.2412 41.5233 26.3208V26.4867L40.0109 35.8923C40.2761 36.0976 40.4962 36.356 40.6571 36.6513C40.818 36.9465 40.9163 37.2721 40.9458 37.6075H41.1108L49.2229 39.2949L55.4926 32.9877C56.1658 32.3778 56.7657 31.6908 57.28 30.9406L43.3657 25.3802ZM19.8268 37.1925C19.0625 37.4692 18.2263 37.4692 17.462 37.1925L14.1071 42.4486L27.004 55.3951C27.6546 56.2124 28.47 56.8818 29.3964 57.3592C29.9588 57.5469 30.5664 57.5469 31.1288 57.3592C31.8804 57.0241 32.5407 56.5117 33.0537 55.8653L20.1568 37.0542L19.8268 37.1925ZM14.5746 34.4262C14.5746 34.4262 14.7396 34.4262 14.7396 34.2878C14.7396 34.1495 14.7396 34.2878 14.5746 34.2878L3.19015 31.9088C3.63128 32.4311 4.09941 32.9297 4.59258 33.4026L8.3324 37.1648L14.5746 34.3985V34.4262ZM15.3446 32.6004C15.4868 32.3233 15.6725 32.0711 15.8945 31.8535V31.6875C13.7771 28.3679 11.5772 25.1589 9.37735 21.9223L4.56508 26.7634C3.41014 27.9252 2.83266 28.5062 2.64017 29.1701C2.53471 29.443 2.48785 29.7353 2.50268 30.0277L15.3446 32.794V32.6004ZM15.812 36.2796C15.7388 36.1941 15.6743 36.1014 15.6195 36.003L9.62483 38.3267L12.5947 41.3697L15.812 36.3349C15.812 36.3349 15.8395 36.2796 15.812 36.2796Z" fill="white"/>
</svg>
