<svg width="69" height="17" viewBox="0 0 69 17" fill="none" xmlns="http://www.w3.org/2000/svg">
<g clip-path="url(#clip0_830_214)">
<path d="M57.8876 0.00683532V2.62333H53.12V16.3889H50.736V2.62349H45.8691V0.00683532H57.8876ZM58.4236 14.8283C58.5915 14.8283 58.7384 14.8996 58.8628 15.0423C58.9889 15.1849 59.0517 15.3558 59.0535 15.5548C59.0532 15.6854 59.0224 15.8134 58.9645 15.9247C58.9078 16.0346 58.8283 16.1257 58.7336 16.1894C58.6399 16.2554 58.5327 16.2898 58.4236 16.2889C58.2489 16.2889 58.1004 16.2175 57.9762 16.0749C57.8518 15.9322 57.7902 15.7594 57.7918 15.5548C57.7903 15.3558 57.8518 15.1849 57.9762 15.0423C58.1004 14.8996 58.2489 14.8283 58.4236 14.8283ZM11.1742 16.3889L2.384 3.50159V16.3822H0V0H2.9798L14.0853 16.2663L14.0854 2.62349L14.0845 0.00683532H26.1029V2.62333H16.4693V6.83261H24.2167V9.44927H16.4693V13.7724H26.103V16.3889H11.1742ZM33.7433 9.42431L35.3056 11.7154L32.1043 16.4083H28.9757L33.7433 9.42431ZM32.1043 0.0136706L36.1378 5.92224L40.1587 0.0317922L43.2785 0.0262285L37.6997 8.21033L43.2875 16.3957H40.1587L28.9846 0.0136706H32.1043ZM62.4923 9.38759H63.5486V14.1882C63.5471 14.6293 63.4661 15.0065 63.308 15.324C63.1481 15.6411 62.9267 15.8834 62.6426 16.0542C62.3598 16.2231 62.0287 16.3095 61.6523 16.3095C61.3083 16.3095 60.9999 16.2364 60.7253 16.0937C60.4506 15.9509 60.2327 15.737 60.0727 15.4553C59.911 15.1738 59.8319 14.8226 59.8319 14.4022H60.8901C60.8917 14.5861 60.9271 14.7455 60.9949 14.8791C61.0617 15.0108 61.1593 15.117 61.276 15.1849C61.3971 15.2564 61.5361 15.292 61.6926 15.292C61.8624 15.292 62.0077 15.2507 62.1256 15.1661C62.2434 15.0835 62.334 14.9596 62.397 14.7945C62.4583 14.6311 62.4907 14.4284 62.4923 14.188V9.38759ZM67.8951 11.2649C67.8695 10.974 67.7562 10.7467 67.5592 10.5854C67.3604 10.4219 67.1037 10.3414 66.7886 10.3414C66.5676 10.3414 66.3769 10.3808 66.2186 10.4577C66.0604 10.5366 65.9376 10.6416 65.8535 10.775C65.7697 10.9082 65.7276 11.0603 65.7243 11.2312C65.7243 11.3738 65.7534 11.4978 65.8098 11.601C65.8684 11.7091 65.9475 11.7998 66.0408 11.8658C66.1422 11.941 66.2507 12.0021 66.364 12.0478C66.4834 12.0966 66.6031 12.1379 66.7225 12.1718L67.2732 12.3314C67.4947 12.3915 67.7095 12.4721 67.9146 12.5754C68.1196 12.6768 68.3054 12.8064 68.4685 12.9621C68.6317 13.1179 68.7609 13.3057 68.8562 13.5253C68.9515 13.745 69 14.0022 69 14.2988C69 14.6986 68.9128 15.0498 68.7367 15.3539C68.5607 15.6562 68.307 15.8927 67.9743 16.0636C67.6432 16.2326 67.2425 16.3189 66.771 16.3189C66.3155 16.3189 65.9182 16.2363 65.5837 16.0711C65.2479 15.9078 64.9861 15.6673 64.7971 15.352C64.6081 15.0366 64.5064 14.6517 64.4918 14.1993H65.5387C65.5531 14.4359 65.6178 14.633 65.7276 14.7926C65.8389 14.9503 65.9843 15.0666 66.1621 15.1455C66.3413 15.2226 66.5416 15.262 66.7629 15.262C66.9939 15.262 67.1974 15.2207 67.3734 15.1399C67.5479 15.0592 67.6851 14.9466 67.7837 14.8C67.8839 14.6554 67.934 14.4847 67.9356 14.2895C67.934 14.1111 67.8886 13.9628 67.8014 13.8463C67.7126 13.7299 67.5898 13.6323 67.4331 13.5535C67.275 13.4746 67.0908 13.4033 66.8808 13.3414L66.2121 13.1424C65.7291 12.9978 65.3464 12.7782 65.0669 12.4834C64.7859 12.1886 64.6469 11.7982 64.6469 11.3082C64.6469 10.9065 64.7406 10.5534 64.9297 10.2511C65.117 9.94904 65.3739 9.71426 65.6985 9.54719C66.0246 9.37821 66.3931 9.29555 66.8032 9.29555C67.22 9.29555 67.585 9.37821 67.9 9.54719C68.2149 9.71426 68.4622 9.94697 68.6413 10.2436C68.8206 10.5404 68.9144 10.8801 68.9193 11.2649H67.8951Z" fill="white"/>
</g>
<defs>
<clipPath id="clip0_830_214">
<rect width="69" height="16.5319" fill="white"/>
</clipPath>
</defs>
</svg>
