<svg width="60" height="60" viewBox="0 0 60 60" fill="none" xmlns="http://www.w3.org/2000/svg">
<path d="M52.9843 13.8515L31.9661 1.56984C30.6406 0.810055 28.9147 0.810055 27.5787 1.56984L6.33599 13.8515C4.96805 14.6434 4 16.1318 4 17.7238V42.2546C4 43.8466 4.99331 45.3355 6.36125 46.1317L11.9736 49.3396C14.6561 50.6693 15.6042 50.6693 16.8248 50.6693C20.7966 50.6693 23.0654 48.2523 23.0654 44.0365V19.8185C23.0654 19.4765 22.8886 18.9676 22.5549 18.9676H19.8748C19.5355 18.9676 18.7757 19.4765 18.7757 19.818V44.036C18.7757 45.9048 17.096 47.7644 13.9569 46.1849L8.15769 42.8211C7.9556 42.7108 7.81308 42.4887 7.81308 42.2546V17.7238C7.81308 17.4926 8.07762 17.2605 8.28114 17.142L29.4552 4.88141C29.653 4.76869 29.9437 4.76869 30.1411 4.88141L51.0568 17.1391C51.257 17.2605 51.1864 17.4854 51.1864 17.7238V42.2546C51.1864 42.4887 51.2737 42.7165 51.0759 42.8292L30.0629 55.097C29.8827 55.2059 29.6592 55.2059 29.4619 55.097L24.0726 51.8598C23.91 51.7648 23.717 51.7308 23.5611 51.8185C22.0616 52.6738 21.7852 52.7874 20.3786 53.2781C20.0326 53.3995 19.5221 53.6101 20.574 54.2034L27.6273 58.4023C28.3007 58.7938 29.0646 58.9999 29.8422 59C30.6249 59 31.3913 58.7957 32.0667 58.4023L52.9838 46.1317C54.3518 45.3297 55 43.8466 55 42.2546V17.7238C55 16.1318 54.3518 14.6473 52.9843 13.8515V13.8515ZM36.3683 38.3674C30.7793 38.3674 29.5481 36.8157 29.1378 34.0188C29.0901 33.7176 28.836 33.3574 28.5315 33.3574H25.7999C25.4619 33.3574 25.1903 33.7699 25.1903 34.1085C25.1903 37.6897 27.1249 42.0287 36.3688 42.0287C43.0603 42.0287 46.8967 39.4121 46.8967 34.7815C46.8967 30.1902 43.8143 28.9853 37.3249 28.1209C30.7655 27.2484 30.0991 26.8076 30.0991 25.2612C30.0991 23.9863 30.6635 22.2859 35.5204 22.2859C39.8601 22.2859 41.4597 23.2231 42.118 26.1668C42.1742 26.4436 42.4254 26.6421 42.709 26.6421H45.4516C45.6203 26.6421 45.7814 26.5735 45.8996 26.4522C46.014 26.3217 46.0745 26.1582 46.0593 25.9826C45.6346 20.9136 42.2881 18.5512 35.5199 18.5512C29.4995 18.5512 25.9081 21.1097 25.9081 25.3984C25.9081 30.0501 29.4814 31.3356 35.2606 31.9107C42.1742 32.5928 42.7119 33.6097 42.7119 34.9781C42.7119 37.3549 40.8158 38.3674 36.3683 38.3674Z" fill="white"/>
</svg>
