<svg width="60" height="60" viewBox="0 0 60 60" fill="none" xmlns="http://www.w3.org/2000/svg">
<g clip-path="url(#clip0_830_264)">
<path d="M41.5731 41.3014C37.3544 49.9264 29.9669 55.7295 20.1934 57.6373C18.6949 58.0044 17.1566 58.1839 15.6138 58.1717C9.98875 58.1717 4.8325 55.8279 2.32938 51.9889C-1.03156 46.8748 -2.17531 36.0326 8.90594 28.0123C9.13094 29.2357 9.59031 30.9139 9.895 31.9076C7.71969 33.5237 5.93911 35.612 4.68719 38.0154C2.62469 42.0654 2.85438 46.1107 5.29656 49.8514C6.98406 52.3732 9.65594 53.9061 13.0919 54.3748C17.3834 54.918 21.7372 54.0981 25.5372 52.0311C31.495 48.8998 35.4653 45.1592 38.0622 40.0451C37.3279 39.2863 36.8933 38.2872 36.8387 37.2326C36.7995 36.101 37.2108 35 37.9824 34.1713C38.754 33.3426 39.8228 32.8538 40.9544 32.8123H41.1138C42.2144 32.8068 43.275 33.2246 44.0761 33.9792C44.8773 34.7339 45.3577 35.7677 45.4179 36.8666C45.4781 37.9656 45.1135 39.0457 44.3996 39.8834C43.6857 40.721 42.6771 41.2522 41.5825 41.367L41.5731 41.3014ZM55.0122 31.8326C60.7356 38.3201 60.8903 45.9561 58.6778 50.3857C56.6153 54.4311 51.1778 58.4811 43.8653 58.4811C40.4517 58.4114 37.0936 57.6039 34.0216 56.1139C35.095 55.3498 36.6184 54.1264 37.4575 53.3623C39.8265 54.3886 42.3759 54.9335 44.9575 54.9654C49.6919 54.9654 53.2778 52.7529 55.4153 48.7076C56.7888 46.0357 56.8684 42.9045 55.57 39.6982C53.9767 35.6641 51.1416 32.2413 47.4747 29.9248C42.6638 26.6817 36.9923 24.9529 31.1903 24.9607H29.8169C29.4966 25.7006 28.9756 26.3359 28.3128 26.7949C27.6501 27.2538 26.8721 27.5181 26.0669 27.5576H25.9216C24.8079 27.5439 23.7434 27.0966 22.9542 26.3107C22.1651 25.5248 21.7134 24.4622 21.6951 23.3486C21.6767 22.235 22.0933 21.1581 22.8562 20.3467C23.6191 19.5353 24.6683 19.0532 25.7809 19.0029H25.9356C26.711 19.0035 27.4712 19.2177 28.1327 19.6221C28.7942 20.0265 29.3316 20.6053 29.6856 21.2951H30.9091C40.6591 21.2951 49.2184 25.0357 55.0122 31.8326ZM16.2231 42.6139C16.1429 41.8355 16.3314 41.053 16.7575 40.3967C12.4825 32.9904 10.195 23.6014 13.7059 13.8279C16.2231 6.48262 22.5606 1.51855 29.4325 1.51855C36.7638 1.51855 44.3997 7.93574 45.3138 20.3014C44.17 19.9217 42.5013 19.3639 41.4981 19.1576C41.2497 15.1123 37.8325 5.03418 29.7372 5.18418C26.8356 5.26387 22.5606 6.6373 20.3622 9.45918C17.6428 12.8277 16.0608 16.9714 15.8434 21.2951C15.3281 27.2238 16.7191 33.1621 19.8137 38.2451C19.9846 38.1827 20.1667 38.1571 20.3481 38.1701H20.4981C21.6319 38.1496 22.7274 38.5803 23.5437 39.3675C24.3599 40.1548 24.83 41.234 24.8505 42.3678C24.871 43.5016 24.4403 44.5971 23.653 45.4133C22.8658 46.2295 21.7866 46.6996 20.6528 46.7201H20.4981C19.392 46.7162 18.3301 46.2855 17.5337 45.518C16.7373 44.7504 16.2678 43.705 16.2231 42.5998V42.6139Z" fill="white"/>
</g>
<defs>
<clipPath id="clip0_830_264">
<rect width="60" height="60" fill="white"/>
</clipPath>
</defs>
</svg>
