<svg width="61" height="33" viewBox="0 0 61 33" fill="none" xmlns="http://www.w3.org/2000/svg">
<path d="M17.93 23L15.05 17.996H13.484V23H11.432V10.49H15.752C16.712 10.49 17.522 10.658 18.182 10.994C18.854 11.33 19.352 11.78 19.676 12.344C20.012 12.908 20.18 13.538 20.18 14.234C20.18 15.05 19.94 15.794 19.46 16.466C18.992 17.126 18.266 17.576 17.282 17.816L20.378 23H17.93ZM13.484 16.358H15.752C16.52 16.358 17.096 16.166 17.48 15.782C17.876 15.398 18.074 14.882 18.074 14.234C18.074 13.586 17.882 13.082 17.498 12.722C17.114 12.35 16.532 12.164 15.752 12.164H13.484V16.358ZM24.8571 12.146V15.818H29.1771V17.492H24.8571V21.326H29.7171V23H22.8051V10.472H29.7171V12.146H24.8571ZM36.3665 23.126C35.5265 23.126 34.7705 22.982 34.0985 22.694C33.4265 22.394 32.8985 21.974 32.5145 21.434C32.1305 20.894 31.9385 20.264 31.9385 19.544H34.1345C34.1825 20.084 34.3925 20.528 34.7645 20.876C35.1485 21.224 35.6825 21.398 36.3665 21.398C37.0745 21.398 37.6265 21.23 38.0225 20.894C38.4185 20.546 38.6165 20.102 38.6165 19.562C38.6165 19.142 38.4905 18.8 38.2385 18.536C37.9985 18.272 37.6925 18.068 37.3205 17.924C36.9605 17.78 36.4565 17.624 35.8085 17.456C34.9925 17.24 34.3265 17.024 33.8105 16.808C33.3065 16.58 32.8745 16.232 32.5145 15.764C32.1545 15.296 31.9745 14.672 31.9745 13.892C31.9745 13.172 32.1545 12.542 32.5145 12.002C32.8745 11.462 33.3785 11.048 34.0265 10.76C34.6745 10.472 35.4245 10.328 36.2765 10.328C37.4885 10.328 38.4785 10.634 39.2465 11.246C40.0265 11.846 40.4585 12.674 40.5425 13.73H38.2745C38.2385 13.274 38.0225 12.884 37.6265 12.56C37.2305 12.236 36.7085 12.074 36.0605 12.074C35.4725 12.074 34.9925 12.224 34.6205 12.524C34.2485 12.824 34.0625 13.256 34.0625 13.82C34.0625 14.204 34.1765 14.522 34.4045 14.774C34.6445 15.014 34.9445 15.206 35.3045 15.35C35.6645 15.494 36.1565 15.65 36.7805 15.818C37.6085 16.046 38.2805 16.274 38.7965 16.502C39.3245 16.73 39.7685 17.084 40.1285 17.564C40.5005 18.032 40.6865 18.662 40.6865 19.454C40.6865 20.09 40.5125 20.69 40.1645 21.254C39.8285 21.818 39.3305 22.274 38.6705 22.622C38.0225 22.958 37.2545 23.126 36.3665 23.126ZM51.1898 10.49V12.164H47.8598V23H45.8078V12.164H42.4598V10.49H51.1898Z" fill="white"/>
<path d="M1.67123 1H59.3288C59.6877 1 60 1.29811 60 1.69231V31.3077C60 31.7019 59.6877 32 59.3288 32H1.67123C1.3123 32 1 31.7019 1 31.3077V1.69231C1 1.29811 1.3123 1 1.67123 1Z" stroke="white" stroke-width="2"/>
</svg>
