<svg width="60" height="60" viewBox="0 0 60 60" fill="none" xmlns="http://www.w3.org/2000/svg">
<path d="M15.0688 28.2215C19.8625 29.9168 24.9197 30.7329 30 30.631C35.0804 30.7322 40.1376 29.9154 44.9312 28.2195C48.6731 26.7511 50 25.1192 50 24.1801V17C48.6918 17.8814 47.2883 18.6105 45.8165 19.1732C40.7446 21.0004 35.3865 21.8913 30 21.8029C24.6139 21.8896 19.2564 21.0002 14.1835 19.1772C12.711 18.6145 11.3073 17.884 10 17V24.17C10 25.1273 11.3309 26.7511 15.0688 28.2215ZM15.0688 41.7636C16.7622 42.4134 18.5086 42.9141 20.2881 43.2602C23.488 43.883 26.7408 44.1894 30 44.1751C33.2592 44.1901 36.5119 43.8844 39.7119 43.2622C41.4914 42.9161 43.2378 42.4154 44.9312 41.7656C48.6731 40.2973 50 38.6654 50 37.7262V30.8794C48.9186 31.5341 47.7821 32.0917 46.6034 32.5457C41.2753 34.4437 35.6513 35.3625 30 35.2581C24.3481 35.3592 18.7241 34.437 13.3966 32.5356C12.2185 32.0804 11.082 31.5229 10 30.8693V37.7222C10 38.6633 11.3309 40.2892 15.0688 41.7636ZM30 58C41.0409 58 50 54.4776 50 50.1353V44.4054C49.0163 45.002 47.9857 45.5167 46.9186 45.9444L46.6034 46.0716C41.2763 47.9753 35.6523 48.8995 30 48.8002C24.3475 48.9024 18.723 47.9781 13.3966 46.0716C13.2882 46.0312 13.1838 45.9848 13.0814 45.9444C12.0143 45.5167 10.9837 45.002 10 44.4054V50.1353C10 54.4776 18.9591 58 30 58Z" fill="white"/>
<path d="M30 18C41.0457 18 50 14.4183 50 10C50 5.58172 41.0457 2 30 2C18.9543 2 10 5.58172 10 10C10 14.4183 18.9543 18 30 18Z" fill="white"/>
</svg>
