<svg width="60" height="60" viewBox="0 0 60 60" fill="none" xmlns="http://www.w3.org/2000/svg">
<g clip-path="url(#clip0_830_240)">
<path d="M0.9375 29.958V59.2549H59.5312V0.661133H0.9375V29.958ZM48.1547 27.6143C49.5581 27.9399 50.8336 28.6739 51.8203 29.7236C52.3635 30.2892 52.8358 30.9188 53.2266 31.5986C53.2266 31.6736 50.6953 33.3846 49.1531 34.3408C49.0969 34.3783 48.8719 34.1346 48.6234 33.7643C48.3419 33.2785 47.9419 32.8719 47.4607 32.5826C46.9796 32.2932 46.4329 32.1305 45.8719 32.1096C44.0953 31.9877 42.9516 32.9205 42.9609 34.4533C42.9462 34.8349 43.0336 35.2136 43.2141 35.5502C43.6031 36.3611 44.3297 36.8439 46.6078 37.8283C50.8031 39.633 52.5984 40.8236 53.7141 42.5158C54.9609 44.3908 55.2375 47.4189 54.3937 49.6596C53.4562 52.0971 51.1594 53.7518 47.9109 54.3002C46.4273 54.4701 44.9282 54.4544 43.4484 54.2533C41.1901 53.887 39.1068 52.8117 37.5 51.183C36.9609 50.5877 35.9109 49.0361 35.9766 48.9236C36.1477 48.7966 36.3279 48.6822 36.5156 48.5814L38.6719 47.3439L40.3547 46.3689L40.7062 46.8893C41.2996 47.738 42.0546 48.4612 42.9281 49.0174C44.8031 50.0018 47.3625 49.8658 48.6281 48.7268C49.0531 48.3094 49.3182 47.7562 49.3773 47.1635C49.4364 46.5708 49.2857 45.9761 48.9516 45.483C48.4828 44.8314 47.5453 44.283 44.925 43.1393C41.9016 41.8361 40.5984 41.0299 39.4078 39.7455C38.6645 38.898 38.1158 37.898 37.8 36.8158C37.5645 35.5795 37.5297 34.3132 37.6969 33.0658C38.3203 30.1455 40.5094 28.1064 43.7062 27.5018C45.1868 27.3186 46.6864 27.3597 48.1547 27.6236V27.6143ZM34.4016 30.0705V32.4705H26.7938V54.1408H21.3984V32.4658H13.7719V30.1221C13.7514 29.3152 13.7733 28.5079 13.8375 27.7033C13.8656 27.6658 18.525 27.6471 24.15 27.6564H34.3734L34.4016 30.0705Z" fill="white"/>
</g>
<defs>
<clipPath id="clip0_830_240">
<rect width="60" height="60" fill="white"/>
</clipPath>
</defs>
</svg>
