<svg width="940" height="1107" viewBox="0 0 940 1107" fill="none" xmlns="http://www.w3.org/2000/svg">
<g clip-path="url(#clip0_852_13)">
<mask id="mask0_852_13" style="mask-type:alpha" maskUnits="userSpaceOnUse" x="-24" y="-79" width="1928" height="1203">
<path d="M948.732 515.652C948.108 513.926 946.224 512.86 944.29 513.401C940.201 514.547 936.704 522.372 932.282 520.147C927.982 517.984 931.091 511.15 936.011 513.864C939.207 515.627 941.765 520.409 945.274 520.51C947.61 520.578 949.642 518.169 948.732 515.652Z" stroke="currentColor" stroke-width="3" stroke-miterlimit="10" stroke-linecap="round" stroke-linejoin="round"/>
<path d="M957.902 514.928C956.767 511.455 953.089 509.217 949.207 510.173C941.001 512.195 933.558 527.541 924.901 522.84C916.483 518.269 923.096 504.871 932.712 510.576C938.957 514.282 943.747 523.954 950.719 524.375C955.363 524.656 959.554 519.989 957.902 514.928Z" stroke="currentColor" stroke-width="3" stroke-miterlimit="10" stroke-linecap="round" stroke-linejoin="round"/>
<path d="M967.117 514.777C965.583 509.525 960.183 506.002 954.327 507.252C941.951 509.891 930.087 532.511 917.351 525.068C904.966 517.83 915.494 498.087 929.619 507.08C938.792 512.92 945.507 527.621 955.922 528.579C962.859 529.218 969.353 522.431 967.117 514.777Z" stroke="currentColor" stroke-width="3" stroke-miterlimit="10" stroke-linecap="round" stroke-linejoin="round"/>
<path d="M976.353 515.202C974.531 508.145 967.487 503.228 959.637 504.646C943.047 507.643 926.303 537.266 909.657 526.823C893.468 516.667 908.313 490.819 926.744 503.384C938.714 511.544 947.041 531.401 960.868 533.113C970.08 534.252 979.01 525.487 976.353 515.202Z" stroke="currentColor" stroke-width="3" stroke-miterlimit="10" stroke-linecap="round" stroke-linejoin="round"/>
<path d="M985.58 516.204C983.581 507.32 974.978 500.904 965.12 502.367C944.285 505.459 922.215 541.793 901.837 528.099C882.019 514.781 901.572 483.086 924.094 499.499C938.722 510.159 948.34 535.283 965.54 537.963C976.997 539.747 988.494 529.152 985.58 516.204Z" stroke="currentColor" stroke-width="3" stroke-miterlimit="10" stroke-linecap="round" stroke-linejoin="round"/>
<path d="M994.774 517.782C992.711 507.054 982.639 499.037 970.764 500.42C945.666 503.342 917.833 546.076 893.917 528.888C870.657 512.173 895.295 474.907 921.682 495.436C938.819 508.768 949.404 539.254 969.926 543.116C983.597 545.688 997.78 533.416 994.774 517.782Z" stroke="currentColor" stroke-width="3" stroke-miterlimit="10" stroke-linecap="round" stroke-linejoin="round"/>
<path d="M1003.9 519.935C1001.89 507.353 990.443 497.637 976.548 498.814C947.182 501.301 913.169 550.101 885.916 529.187C859.412 508.848 889.5 466.306 919.511 491.205C939.001 507.376 950.224 543.304 974.008 548.558C989.851 552.058 1006.84 538.272 1003.9 519.935Z" stroke="currentColor" stroke-width="3" stroke-miterlimit="10" stroke-linecap="round" stroke-linejoin="round"/>
<path d="M1012.95 522.66C1011.1 508.218 998.373 496.711 982.462 497.556C948.834 499.343 908.237 553.856 877.863 528.993C848.322 504.812 884.213 457.305 917.594 486.82C939.272 505.988 950.802 547.424 977.775 554.277C995.744 558.842 1015.64 543.708 1012.95 522.66Z" stroke="currentColor" stroke-width="3" stroke-miterlimit="10" stroke-linecap="round" stroke-linejoin="round"/>
<path d="M1021.87 525.953C1020.31 509.651 1006.4 496.264 988.486 496.652C950.615 497.472 903.046 557.327 869.775 528.3C837.417 500.071 879.448 447.927 915.933 482.289C939.629 504.605 951.127 551.598 981.211 560.257C1001.25 566.025 1024.15 549.712 1021.87 525.953Z" stroke="currentColor" stroke-width="3" stroke-miterlimit="10" stroke-linecap="round" stroke-linejoin="round"/>
<path d="M1030.65 529.81C1029.49 511.653 1014.51 496.302 994.604 496.108C952.522 495.697 897.612 560.501 861.678 527.108C826.732 494.631 875.224 438.196 914.54 477.626C940.074 503.234 951.202 555.819 984.307 566.483C1006.36 573.587 1032.36 556.272 1030.65 529.81Z" stroke="currentColor" stroke-width="3" stroke-miterlimit="10" stroke-linecap="round" stroke-linejoin="round"/>
<path d="M1039.27 534.224C1038.61 514.223 1022.68 496.829 1000.8 495.928C954.553 494.023 891.947 563.369 853.598 525.415C816.302 488.505 871.561 428.138 913.422 472.844C940.609 501.879 951.025 560.072 987.05 572.94C1011.05 581.512 1040.23 563.374 1039.27 534.224Z" stroke="currentColor" stroke-width="3" stroke-miterlimit="10" stroke-linecap="round" stroke-linejoin="round"/>
<path d="M1047.69 539.188C1047.66 517.359 1030.88 497.849 1007.06 496.116C956.699 492.454 886.066 565.916 845.554 523.222C806.155 481.702 868.472 417.777 912.581 467.954C941.227 500.542 950.59 564.345 989.428 579.61C1015.3 589.778 1047.73 571.003 1047.69 539.188Z" stroke="currentColor" stroke-width="3" stroke-miterlimit="10" stroke-linecap="round" stroke-linejoin="round"/>
<path d="M1055.88 544.694C1056.59 521.058 1039.1 499.363 1013.36 496.677C958.959 490.998 879.981 568.133 837.572 520.53C796.327 474.234 865.974 407.141 912.024 462.97C941.932 499.228 949.898 568.63 991.429 586.478C1019.09 598.367 1054.85 579.142 1055.88 544.694Z" stroke="currentColor" stroke-width="3" stroke-miterlimit="10" stroke-linecap="round" stroke-linejoin="round"/>
<path d="M1063.83 550.733C1065.39 525.317 1047.3 501.375 1019.69 497.612C961.324 489.66 873.71 570.012 829.673 517.34C786.845 466.115 864.079 396.257 911.756 457.906C942.719 497.943 948.947 572.911 993.044 593.527C1022.42 607.259 1061.55 587.777 1063.83 550.733Z" stroke="currentColor" stroke-width="3" stroke-miterlimit="10" stroke-linecap="round" stroke-linejoin="round"/>
<path d="M1071.51 557.295C1074.04 530.131 1055.47 503.884 1026.02 498.925C963.795 488.446 867.269 571.543 821.885 513.657C777.747 457.361 862.802 385.153 911.782 452.773C943.592 496.689 947.737 577.178 994.265 600.739C1025.26 616.433 1067.82 596.886 1071.51 557.295Z" stroke="currentColor" stroke-width="3" stroke-miterlimit="10" stroke-linecap="round" stroke-linejoin="round"/>
<path d="M1078.89 564.367C1082.49 535.492 1063.57 506.888 1032.35 500.615C966.359 487.358 860.67 572.713 814.224 509.481C769.055 447.986 862.153 373.854 912.104 447.585C944.545 495.469 946.268 581.417 995.081 608.094C1027.6 625.864 1073.63 606.452 1078.89 564.367Z" stroke="currentColor" stroke-width="3" stroke-miterlimit="10" stroke-linecap="round" stroke-linejoin="round"/>
<path d="M1085.94 571.938C1090.73 541.395 1071.6 510.388 1038.65 502.685C969.016 486.404 853.932 573.519 806.721 504.82C760.806 438.009 862.143 362.393 912.728 442.357C945.58 494.29 944.541 585.618 995.488 615.576C1029.43 635.532 1078.96 616.454 1085.94 571.938Z" stroke="currentColor" stroke-width="3" stroke-miterlimit="10" stroke-linecap="round" stroke-linejoin="round"/>
<path d="M1092.65 579.993C1098.74 547.83 1079.52 514.379 1044.91 505.132C971.759 485.586 847.072 573.949 799.394 499.678C753.026 427.447 862.783 350.795 913.655 437.101C946.695 493.152 942.559 589.768 995.477 623.166C1030.73 645.413 1083.78 626.87 1092.65 579.993Z" stroke="currentColor" stroke-width="3" stroke-miterlimit="10" stroke-linecap="round" stroke-linejoin="round"/>
<path d="M1098.99 588.519C1106.48 554.788 1087.31 518.861 1051.1 507.958C974.578 484.913 840.104 574.002 792.267 494.064C745.744 416.322 864.078 339.094 914.888 431.834C947.886 492.064 940.319 593.856 995.041 630.846C1031.49 655.484 1088.08 637.681 1098.99 588.519Z" stroke="currentColor" stroke-width="3" stroke-miterlimit="10" stroke-linecap="round" stroke-linejoin="round"/>
<path d="M1104.94 597.501C1113.94 562.261 1094.96 523.828 1057.22 511.159C977.475 484.383 833.051 573.667 785.364 487.984C738.988 404.655 866.04 327.317 916.43 426.566C949.155 491.024 937.828 597.868 994.178 638.593C1031.71 665.721 1091.83 648.861 1104.94 597.501Z" stroke="currentColor" stroke-width="3" stroke-miterlimit="10" stroke-linecap="round" stroke-linejoin="round"/>
<path d="M1110.48 606.919C1121.08 570.233 1102.43 529.274 1063.25 514.734C980.434 484.004 825.922 572.939 778.704 481.446C732.782 392.467 868.668 315.494 918.276 421.314C950.495 490.039 935.084 601.794 992.876 646.391C1031.37 676.098 1095.03 660.388 1110.48 606.919Z" stroke="currentColor" stroke-width="3" stroke-miterlimit="10" stroke-linecap="round" stroke-linejoin="round"/>
<path d="M1115.57 616.759C1127.88 578.694 1109.7 535.193 1069.15 518.679C983.454 483.777 818.742 571.816 772.311 474.461C727.155 379.781 871.972 303.655 920.433 416.09C951.907 489.111 932.093 605.62 991.139 654.219C1030.47 686.592 1097.64 672.237 1115.57 616.759Z" stroke="currentColor" stroke-width="3" stroke-miterlimit="10" stroke-linecap="round" stroke-linejoin="round"/>
<path d="M1120.22 627C1134.33 587.63 1116.76 541.578 1074.93 522.991C986.527 483.707 811.526 570.291 766.206 467.039C722.131 366.624 875.952 291.834 922.899 410.911C953.388 488.245 928.858 609.336 988.961 662.057C1029 697.176 1099.65 684.381 1120.22 627Z" stroke="currentColor" stroke-width="3" stroke-miterlimit="10" stroke-linecap="round" stroke-linejoin="round"/>
<path d="M1124.38 637.626C1140.39 597.027 1123.57 548.421 1080.56 527.665C989.646 483.796 804.291 568.363 760.41 459.192C717.734 353.02 880.611 280.06 925.671 405.789C954.935 487.443 925.383 612.931 986.339 669.886C1026.94 707.825 1101.05 696.796 1124.38 637.626Z" stroke="currentColor" stroke-width="3" stroke-miterlimit="10" stroke-linecap="round" stroke-linejoin="round"/>
<path d="M1128.05 648.615C1146.04 606.87 1130.12 555.714 1086.02 532.698C992.804 484.05 797.058 566.031 754.943 450.933C713.985 338.997 885.95 268.365 928.749 400.741C956.545 486.712 921.673 616.395 983.271 677.687C1024.31 718.514 1101.82 709.456 1128.05 648.615Z" stroke="currentColor" stroke-width="3" stroke-miterlimit="10" stroke-linecap="round" stroke-linejoin="round"/>
<path d="M1131.2 659.945C1151.26 617.14 1136.39 563.446 1091.3 538.08C995.995 484.467 789.843 563.289 749.827 442.273C710.908 324.581 891.968 256.778 932.133 395.777C958.218 486.049 917.731 619.711 979.761 685.435C1021.08 729.214 1101.95 722.33 1131.2 659.945Z" stroke="currentColor" stroke-width="3" stroke-miterlimit="10" stroke-linecap="round" stroke-linejoin="round"/>
<path d="M1133.82 671.595C1156.04 627.821 1142.36 571.604 1096.38 543.805C999.209 485.049 782.667 560.138 745.079 433.225C708.524 309.799 898.663 245.331 935.817 390.912C959.947 485.459 913.565 622.871 975.803 693.111C1017.26 739.9 1101.43 735.393 1133.82 671.595Z" stroke="currentColor" stroke-width="3" stroke-miterlimit="10" stroke-linecap="round" stroke-linejoin="round"/>
<path d="M1135.89 683.543C1160.35 638.895 1147.99 580.181 1101.24 549.869C1002.44 485.803 775.545 556.579 740.718 423.809C706.848 294.685 906.031 234.056 939.799 386.164C961.73 484.949 909.179 625.868 971.402 700.699C1012.85 750.546 1100.23 748.616 1135.89 683.543Z" stroke="currentColor" stroke-width="3" stroke-miterlimit="10" stroke-linecap="round" stroke-linejoin="round"/>
<path d="M1137.39 695.767C1164.16 650.343 1153.29 589.16 1105.88 556.261C1005.68 486.726 768.498 552.611 736.766 414.035C705.905 279.266 914.068 222.984 944.078 381.542C963.567 484.517 904.582 628.685 966.559 708.174C1007.84 761.124 1098.37 761.969 1137.39 695.767Z" stroke="currentColor" stroke-width="3" stroke-miterlimit="10" stroke-linecap="round" stroke-linejoin="round"/>
<path d="M1138.31 708.241C1167.47 662.145 1158.21 598.53 1110.26 562.973C1008.92 487.822 761.546 548.237 733.238 403.924C705.708 263.575 922.77 212.146 948.646 377.064C965.451 484.17 899.778 631.317 961.277 715.519C1002.24 771.608 1095.81 775.423 1138.31 708.241Z" stroke="currentColor" stroke-width="3" stroke-miterlimit="10" stroke-linecap="round" stroke-linejoin="round"/>
<path d="M1138.64 720.94C1170.26 674.278 1162.76 608.275 1114.39 569.995C1012.16 489.088 754.706 543.457 730.154 393.49C706.276 247.642 932.129 201.571 953.502 372.739C967.381 483.905 894.778 633.749 955.563 722.71C996.053 781.97 1092.57 788.948 1138.64 720.94Z" stroke="currentColor" stroke-width="3" stroke-miterlimit="10" stroke-linecap="round" stroke-linejoin="round"/>
<path d="M1138.36 733.839C1172.49 686.721 1166.89 618.381 1118.23 577.318C1015.38 490.528 747.995 538.275 727.526 382.752C707.619 231.502 942.135 191.291 958.636 368.585C969.351 483.729 889.586 635.975 949.414 729.73C989.269 792.184 1088.62 802.512 1138.36 733.839Z" stroke="currentColor" stroke-width="3" stroke-miterlimit="10" stroke-linecap="round" stroke-linejoin="round"/>
<path d="M1137.46 746.915C1174.17 699.454 1170.61 628.832 1121.79 584.931C1018.59 492.143 741.434 532.696 725.374 371.731C709.755 215.187 952.779 181.337 964.044 364.615C971.36 483.643 884.21 637.984 942.841 736.559C981.897 802.223 1083.97 816.086 1137.46 746.915Z" stroke="currentColor" stroke-width="3" stroke-miterlimit="10" stroke-linecap="round" stroke-linejoin="round"/>
<path d="M1135.93 760.138C1175.27 712.451 1173.89 639.611 1125.03 592.822C1021.76 493.93 735.04 526.721 723.711 360.442C712.693 198.73 964.051 171.737 969.72 360.838C973.402 483.649 878.662 639.766 935.85 743.174C973.943 812.058 1078.6 829.638 1135.93 760.138Z" stroke="currentColor" stroke-width="3" stroke-miterlimit="10" stroke-linecap="round" stroke-linejoin="round"/>
<path d="M1133.76 773.482C1175.77 725.69 1176.71 650.701 1127.95 600.98C1024.9 495.891 728.832 520.359 722.551 348.909C716.444 182.168 975.938 162.522 975.657 357.271C975.474 483.749 872.949 641.314 928.444 749.56C965.411 821.666 1072.53 843.138 1133.76 773.482Z" stroke="currentColor" stroke-width="3" stroke-miterlimit="10" stroke-linecap="round" stroke-linejoin="round"/>
<path d="M1130.94 786.921C1175.67 739.145 1179.06 662.082 1130.54 609.391C1027.99 498.024 722.827 513.614 721.91 337.15C721.018 165.534 988.428 153.721 981.846 353.924C977.571 483.945 867.08 642.618 920.635 755.694C956.31 831.017 1065.74 856.552 1130.94 786.921Z" stroke="currentColor" stroke-width="3" stroke-miterlimit="10" stroke-linecap="round" stroke-linejoin="round"/>
<path d="M1127.46 800.426C1174.96 752.792 1180.93 673.737 1132.78 618.043C1031.03 500.33 717.045 506.492 721.8 325.189C726.423 148.865 1001.5 145.362 988.28 350.811C979.692 484.239 861.065 643.671 912.43 761.558C946.647 840.087 1058.23 869.85 1127.46 800.426Z" stroke="currentColor" stroke-width="3" stroke-miterlimit="10" stroke-linecap="round" stroke-linejoin="round"/>
<path d="M1123.31 813.969C1173.61 766.605 1182.29 685.647 1134.66 626.923C1034.01 502.806 711.501 499.003 722.23 313.046C732.665 132.196 1015.15 137.474 994.95 347.944C981.83 484.633 854.914 644.465 903.839 767.135C936.428 848.849 1050.01 883.001 1123.31 813.969Z" stroke="currentColor" stroke-width="3" stroke-miterlimit="10" stroke-linecap="round" stroke-linejoin="round"/>
<path d="M1118.5 827.521C1171.62 780.556 1183.13 697.788 1136.17 636.014C1036.92 505.45 706.215 491.152 723.216 300.743C739.75 115.564 1029.36 130.084 1001.85 345.333C983.982 485.126 848.639 644.99 894.871 772.403C925.668 857.276 1041.08 895.971 1118.5 827.521Z" stroke="currentColor" stroke-width="3" stroke-miterlimit="10" stroke-linecap="round" stroke-linejoin="round"/>
<path d="M1113.01 841.053C1168.98 794.618 1183.44 710.143 1137.3 645.304C1039.76 508.261 701.203 482.95 724.765 288.304C747.681 99.0044 1044.1 123.22 1008.96 342.991C986.144 485.721 842.251 645.243 885.539 777.346C914.375 865.343 1031.44 908.729 1113.01 841.053Z" stroke="currentColor" stroke-width="3" stroke-miterlimit="10" stroke-linecap="round" stroke-linejoin="round"/>
<path d="M1106.84 854.537C1165.68 808.767 1183.22 722.689 1138.02 654.776C1042.51 511.237 696.479 474.406 726.886 275.752C756.456 82.5546 1059.35 116.906 1016.28 340.928C988.309 486.419 835.755 645.214 875.851 781.946C902.56 873.027 1021.1 921.245 1106.84 854.537Z" stroke="currentColor" stroke-width="3" stroke-miterlimit="10" stroke-linecap="round" stroke-linejoin="round"/>
<path d="M1100 867.943C1161.71 822.973 1182.43 735.403 1138.35 664.414C1045.17 514.375 692.064 465.531 729.589 263.111C766.082 66.2514 1075.1 111.17 1023.8 339.156C990.476 487.22 829.17 644.898 865.824 786.185C890.241 880.302 1010.06 933.484 1100 867.943Z" stroke="currentColor" stroke-width="3" stroke-miterlimit="10" stroke-linecap="round" stroke-linejoin="round"/>
<path d="M1092.47 881.242C1157.06 837.209 1181.09 748.265 1138.26 674.204C1047.74 517.673 687.973 456.335 732.881 250.406C776.556 50.1333 1091.33 106.036 1031.5 337.684C992.64 488.126 822.505 644.291 855.469 790.048C877.428 887.142 998.327 945.417 1092.47 881.242Z" stroke="currentColor" stroke-width="3" stroke-miterlimit="10" stroke-linecap="round" stroke-linejoin="round"/>
<path d="M1084.26 894.402C1151.74 851.444 1179.17 761.25 1137.75 684.128C1050.2 521.127 684.22 446.831 736.769 237.661C787.873 34.2365 1108.01 101.529 1039.37 336.521C994.795 489.136 815.771 643.385 844.8 793.518C864.138 893.525 985.914 957.012 1084.26 894.402Z" stroke="currentColor" stroke-width="3" stroke-miterlimit="10" stroke-linecap="round" stroke-linejoin="round"/>
<path d="M1075.37 907.395C1145.73 865.65 1176.67 774.333 1136.8 694.167C1052.54 524.731 680.822 437.027 741.258 224.899C800.032 18.5972 1125.12 97.6678 1047.41 335.677C996.938 490.251 808.982 642.176 833.832 796.576C850.386 899.428 972.829 968.236 1075.37 907.395Z" stroke="currentColor" stroke-width="3" stroke-miterlimit="10" stroke-linecap="round" stroke-linejoin="round"/>
<path d="M1065.81 920.192C1139.03 879.799 1173.58 787.493 1135.42 704.307C1054.77 528.488 677.793 426.944 746.352 212.15C813.027 3.25591 1142.64 94.4822 1055.59 335.164C999.064 491.473 802.149 640.662 822.581 799.212C836.193 904.828 959.085 979.062 1065.81 920.192Z" stroke="currentColor" stroke-width="3" stroke-miterlimit="10" stroke-linecap="round" stroke-linejoin="round"/>
<path d="M1055.57 932.761C1131.64 893.861 1169.88 800.704 1133.58 714.527C1056.87 532.386 675.147 416.588 752.055 199.434C826.85 -11.7548 1160.53 91.9859 1063.91 334.984C1001.17 492.798 795.283 638.834 811.061 801.407C821.572 909.702 944.69 989.457 1055.57 932.761Z" stroke="currentColor" stroke-width="3" stroke-miterlimit="10" stroke-linecap="round" stroke-linejoin="round"/>
<path d="M1044.66 945.076C1123.56 907.808 1165.59 813.943 1131.3 724.812C1058.83 536.427 672.898 405.979 758.37 186.783C841.493 -26.3938 1178.78 90.2064 1072.36 335.152C1003.24 494.23 788.4 636.694 799.291 803.149C806.547 914.031 929.664 999.391 1044.66 945.076Z" stroke="currentColor" stroke-width="3" stroke-miterlimit="10" stroke-linecap="round" stroke-linejoin="round"/>
<path d="M1033.09 957.103C1114.79 921.609 1160.68 827.183 1128.56 735.141C1060.66 540.604 671.061 395.129 765.298 174.218C856.946 -40.6249 1197.35 89.1598 1080.91 335.67C1005.29 495.766 781.513 634.237 787.288 804.424C791.135 917.793 914.017 1008.84 1033.09 957.103Z" stroke="currentColor" stroke-width="3" stroke-miterlimit="10" stroke-linecap="round" stroke-linejoin="round"/>
<path d="M1020.87 968.815C1105.34 935.232 1155.16 840.398 1125.35 745.495C1062.33 544.911 669.646 384.053 772.839 161.767C873.197 -54.4146 1216.21 88.8633 1089.56 336.548C1007.3 497.406 774.632 631.461 775.067 805.22C775.357 920.966 897.766 1017.76 1020.87 968.815Z" stroke="currentColor" stroke-width="3" stroke-miterlimit="10" stroke-linecap="round" stroke-linejoin="round"/>
<path d="M1008 980.182C1095.19 948.65 1149.03 853.564 1121.67 755.855C1063.85 549.342 668.668 372.769 780.994 149.455C890.234 -67.7249 1235.34 89.3354 1098.29 337.79C1009.27 499.149 767.774 628.361 762.65 805.522C759.238 923.535 880.932 1026.14 1008 980.182Z" stroke="currentColor" stroke-width="3" stroke-miterlimit="10" stroke-linecap="round" stroke-linejoin="round"/>
<path d="M994.502 991.175C1084.37 961.834 1142.28 866.656 1117.53 766.205C1065.22 553.895 668.138 361.292 789.761 137.311C908.044 -80.5184 1254.72 90.5948 1107.08 339.405C1011.2 500.995 760.951 624.941 750.056 805.322C742.798 925.479 863.531 1033.94 994.502 991.175Z" stroke="currentColor" stroke-width="3" stroke-miterlimit="10" stroke-linecap="round" stroke-linejoin="round"/>
<path d="M980.374 1001.76C1072.86 974.751 1134.9 879.645 1112.9 776.52C1066.41 558.561 668.065 349.639 799.136 125.358C926.607 -92.7644 1274.29 92.6518 1115.93 341.395C1013.08 502.941 754.174 621.196 737.3 804.605C726.061 926.78 845.581 1041.14 980.374 1001.76Z" stroke="currentColor" stroke-width="3" stroke-miterlimit="10" stroke-linecap="round" stroke-linejoin="round"/>
<path d="M965.634 1011.92C1060.68 987.375 1126.91 892.507 1107.81 786.786C1067.44 563.337 668.46 337.831 809.116 113.625C945.908 -104.422 1294.04 95.5257 1124.81 343.768C1014.91 504.989 747.461 617.129 724.407 803.366C709.051 927.423 827.107 1047.7 965.634 1011.92Z" stroke="currentColor" stroke-width="3" stroke-miterlimit="10" stroke-linecap="round" stroke-linejoin="round"/>
<path d="M950.296 1021.62C1047.84 999.673 1118.29 905.216 1102.23 796.978C1068.28 568.213 669.335 325.881 819.697 102.137C965.929 -115.462 1313.94 99.2252 1133.72 346.525C1016.67 507.133 740.822 612.737 711.395 801.592C691.794 927.392 808.128 1053.62 950.296 1021.62Z" stroke="currentColor" stroke-width="3" stroke-miterlimit="10" stroke-linecap="round" stroke-linejoin="round"/>
<path d="M934.372 1030.84C1034.34 1011.62 1109.06 917.745 1096.18 807.081C1068.95 573.185 670.696 313.811 830.872 90.9215C986.648 -125.847 1333.94 103.765 1142.63 349.673C1018.38 509.376 734.274 608.025 698.287 799.276C674.315 926.674 788.669 1058.85 934.372 1030.84Z" stroke="currentColor" stroke-width="3" stroke-miterlimit="10" stroke-linecap="round" stroke-linejoin="round"/>
<path d="M917.88 1039.54C1020.2 1023.18 1099.22 930.067 1089.65 817.071C1069.42 578.246 672.554 301.638 842.635 80.0023C1008.04 -135.547 1354.02 109.153 1151.53 353.21C1020.01 511.713 727.828 602.99 685.102 796.409C656.641 925.251 768.753 1063.38 917.88 1039.54Z" stroke="currentColor" stroke-width="3" stroke-miterlimit="10" stroke-linecap="round" stroke-linejoin="round"/>
<path d="M900.835 1047.7C1005.42 1034.33 1088.76 942.156 1082.64 826.929C1069.7 583.389 674.914 289.384 854.977 69.407C1030.09 -144.528 1374.15 115.398 1160.4 357.142C1021.58 514.142 721.498 597.636 671.862 792.985C638.798 923.113 748.406 1067.17 900.835 1047.7Z" stroke="currentColor" stroke-width="3" stroke-miterlimit="10" stroke-linecap="round" stroke-linejoin="round"/>
<path d="M883.258 1055.29C990.022 1045.04 1077.7 953.985 1075.16 836.634C1069.79 588.605 677.785 277.065 867.89 59.1596C1052.77 -152.76 1394.28 122.509 1169.23 361.47C1023.07 516.661 715.299 591.964 658.59 788.997C620.815 920.246 727.654 1070.22 883.258 1055.29Z" stroke="currentColor" stroke-width="3" stroke-miterlimit="10" stroke-linecap="round" stroke-linejoin="round"/>
<path d="M865.164 1062.29C974.011 1055.28 1066.04 965.531 1067.21 846.168C1069.67 593.889 681.17 264.703 881.363 49.2883C1076.06 -160.211 1414.39 130.495 1178 366.196C1024.48 519.271 709.243 585.981 645.308 784.442C602.72 916.643 706.525 1072.5 865.164 1062.29Z" stroke="currentColor" stroke-width="3" stroke-miterlimit="10" stroke-linecap="round" stroke-linejoin="round"/>
<path d="M846.576 1068.67C957.406 1065.03 1053.79 976.764 1058.78 855.51C1069.34 599.232 685.078 252.319 895.385 39.8154C1099.92 -166.853 1434.43 139.356 1186.7 371.317C1025.81 521.964 703.345 579.685 632.039 779.312C584.541 912.29 685.047 1073.98 846.576 1068.67Z" stroke="currentColor" stroke-width="3" stroke-miterlimit="10" stroke-linecap="round" stroke-linejoin="round"/>
<path d="M827.517 1074.41C940.224 1074.25 1040.96 987.661 1049.9 864.639C1068.81 604.626 689.516 239.934 909.949 30.7676C1124.33 -172.654 1454.38 149.098 1195.31 376.837C1027.05 524.741 697.622 573.084 618.81 773.607C566.31 907.182 663.251 1074.65 827.517 1074.41Z" stroke="currentColor" stroke-width="3" stroke-miterlimit="10" stroke-linecap="round" stroke-linejoin="round"/>
<path d="M808.003 1079.49C922.477 1082.92 1027.55 998.195 1040.56 873.537C1068.06 610.064 694.48 227.567 925.034 22.169C1149.25 -177.589 1474.19 159.726 1203.8 382.754C1028.2 527.599 692.079 566.183 605.636 767.323C548.053 901.308 641.163 1074.48 808.003 1079.49Z" stroke="currentColor" stroke-width="3" stroke-miterlimit="10" stroke-linecap="round" stroke-linejoin="round"/>
<path d="M788.061 1083.88C904.185 1091.02 1013.57 1008.34 1030.76 882.182C1067.1 615.538 699.978 215.242 940.629 14.0432C1174.67 -181.63 1493.84 171.237 1212.18 389.066C1029.25 530.533 686.735 558.985 592.545 760.458C529.802 894.665 618.817 1073.47 788.061 1083.88Z" stroke="currentColor" stroke-width="3" stroke-miterlimit="10" stroke-linecap="round" stroke-linejoin="round"/>
<path d="M767.716 1087.56C885.368 1098.51 999.047 1018.07 1020.52 890.556C1065.91 621.039 706.011 202.978 956.72 6.4133C1200.54 -184.753 1513.28 183.633 1220.41 395.769C1030.21 533.54 681.603 551.496 579.561 753.01C511.587 887.246 596.245 1071.6 767.716 1087.56Z" stroke="currentColor" stroke-width="3" stroke-miterlimit="10" stroke-linecap="round" stroke-linejoin="round"/>
<path d="M746.993 1090.51C866.047 1105.38 983.983 1027.37 1009.84 898.637C1064.5 626.557 712.583 190.796 973.291 -0.696844C1226.84 -186.932 1532.48 196.911 1228.49 402.863C1031.06 536.618 676.695 543.723 566.707 744.981C493.441 879.046 573.479 1068.84 746.993 1090.51Z" stroke="currentColor" stroke-width="3" stroke-miterlimit="10" stroke-linecap="round" stroke-linejoin="round"/>
<path d="M725.914 1092.71C846.238 1111.59 968.388 1036.2 998.734 906.409C1062.87 632.087 719.689 178.722 990.323 -7.26363C1253.52 -188.141 1551.41 211.07 1236.39 410.345C1031.81 539.764 672.022 535.673 554.006 736.373C475.391 870.065 550.549 1065.19 725.914 1092.71Z" stroke="currentColor" stroke-width="3" stroke-miterlimit="10" stroke-linecap="round" stroke-linejoin="round"/>
<path d="M704.511 1094.14C825.968 1117.13 952.284 1044.55 987.204 913.851C1061.01 637.617 727.334 166.773 1007.8 -13.2675C1280.56 -188.363 1570.01 226.101 1244.1 418.209C1032.44 542.972 667.6 527.353 541.483 727.185C457.474 860.299 527.494 1060.64 704.511 1094.14Z" stroke="currentColor" stroke-width="3" stroke-miterlimit="10" stroke-linecap="round" stroke-linejoin="round"/>
<path d="M682.809 1094.79C805.258 1121.97 935.682 1052.38 975.264 920.944C1058.92 643.138 735.513 154.972 1025.7 -18.6866C1307.92 -187.575 1588.27 242.001 1251.61 426.45C1032.96 546.239 663.438 518.769 529.161 717.419C439.715 849.747 504.346 1055.16 682.809 1094.79Z" stroke="currentColor" stroke-width="3" stroke-miterlimit="10" stroke-linecap="round" stroke-linejoin="round"/>
<path d="M660.837 1094.63C784.133 1126.09 918.599 1059.69 962.923 927.671C1056.61 648.645 744.227 143.343 1044.01 -23.498C1335.55 -185.756 1606.14 258.764 1258.89 435.064C1033.37 549.562 659.55 509.932 517.065 707.083C422.151 838.412 481.14 1048.76 660.837 1094.63Z" stroke="currentColor" stroke-width="3" stroke-miterlimit="10" stroke-linecap="round" stroke-linejoin="round"/>
<path d="M638.626 1093.64C762.619 1129.47 901.053 1066.44 950.194 934.01C1054.06 654.124 753.472 131.905 1062.7 -27.6844C1363.43 -182.891 1623.59 276.377 1265.94 444.044C1033.66 552.935 655.949 500.849 505.218 696.178C404.812 826.294 457.913 1041.42 638.626 1093.64Z" stroke="currentColor" stroke-width="3" stroke-miterlimit="10" stroke-linecap="round" stroke-linejoin="round"/>
<path d="M616.205 1091.82C740.741 1132.09 883.064 1072.61 937.09 939.949C1051.28 659.569 763.246 120.683 1081.76 -31.2243C1391.52 -178.96 1640.58 294.833 1272.73 453.386C1033.83 556.357 652.647 491.533 493.647 684.713C387.732 813.397 434.702 1033.14 616.205 1091.82Z" stroke="currentColor" stroke-width="3" stroke-miterlimit="10" stroke-linecap="round" stroke-linejoin="round"/>
<path d="M593.603 1089.16C718.523 1133.93 864.645 1078.18 923.62 945.467C1048.27 664.97 773.539 109.696 1101.15 -34.0997C1419.77 -173.948 1657.07 314.119 1279.25 463.079C1033.87 559.82 649.649 481.989 482.369 672.691C370.938 799.724 411.538 1023.9 593.603 1089.16Z" stroke="currentColor" stroke-width="3" stroke-miterlimit="10" stroke-linecap="round" stroke-linejoin="round"/>
<path d="M570.853 1085.62C695.996 1134.96 845.822 1083.13 909.8 950.547C1045.02 670.318 784.352 98.969 1120.87 -36.2936C1448.14 -167.842 1673.03 334.222 1285.48 473.116C1033.78 563.322 646.972 472.229 471.412 660.122C354.466 785.284 388.463 1013.71 570.853 1085.62Z" stroke="currentColor" stroke-width="3" stroke-miterlimit="10" stroke-linecap="round" stroke-linejoin="round"/>
<path d="M547.989 1081.22C673.189 1135.18 826.614 1087.45 895.646 955.173C1041.55 675.602 795.675 88.5208 1140.87 -37.7888C1476.59 -160.63 1688.43 355.126 1291.41 483.49C1033.57 566.857 644.625 462.265 460.8 647.014C338.347 770.081 365.515 1002.56 547.989 1081.22Z" stroke="currentColor" stroke-width="3" stroke-miterlimit="10" stroke-linecap="round" stroke-linejoin="round"/>
<path d="M525.041 1075.92C650.131 1134.57 807.044 1091.1 881.172 959.329C1037.85 680.815 807.503 78.374 1161.15 -38.5682C1505.09 -152.3 1703.23 376.816 1297.03 494.191C1033.23 570.42 642.619 452.106 450.553 633.374C322.613 754.123 342.73 990.455 525.041 1075.92Z" stroke="currentColor" stroke-width="3" stroke-miterlimit="10" stroke-linecap="round" stroke-linejoin="round"/>
<path d="M502.043 1069.74C626.849 1133.1 787.132 1094.08 866.391 963C1033.91 685.947 819.826 68.5513 1181.67 -38.6172C1533.58 -142.843 1717.39 399.276 1302.31 505.209C1032.75 574.007 640.961 441.765 440.697 619.215C307.294 737.422 320.144 977.384 502.043 1069.74Z" stroke="currentColor" stroke-width="3" stroke-miterlimit="10" stroke-linecap="round" stroke-linejoin="round"/>
<path d="M479.029 1062.65C603.377 1130.78 766.902 1096.37 851.323 966.171C1029.75 690.988 832.635 59.0729 1202.41 -37.9198C1562.03 -132.249 1730.88 422.486 1307.26 516.535C1032.13 577.614 639.662 431.255 431.251 604.549C292.422 719.986 297.797 963.353 479.029 1062.65Z" stroke="currentColor" stroke-width="3" stroke-miterlimit="10" stroke-linecap="round" stroke-linejoin="round"/>
<path d="M456.033 1054.65C579.746 1127.57 746.38 1097.94 835.982 968.827C1025.36 695.931 845.923 49.9593 1223.34 -36.4645C1590.39 -120.516 1743.67 446.426 1311.84 528.156C1031.38 581.235 638.733 420.588 422.24 589.386C278.029 701.828 275.729 948.365 456.033 1054.65Z" stroke="currentColor" stroke-width="3" stroke-miterlimit="10" stroke-linecap="round" stroke-linejoin="round"/>
<path d="M433.09 1045.73C555.988 1123.48 725.59 1098.79 820.389 970.952C1020.75 700.763 859.678 41.2309 1244.43 -34.2388C1618.62 -107.637 1755.73 471.073 1316.04 540.061C1030.49 584.865 638.179 409.775 413.686 573.739C264.145 682.961 253.974 932.421 433.09 1045.73Z" stroke="currentColor" stroke-width="3" stroke-miterlimit="10" stroke-linecap="round" stroke-linejoin="round"/>
<path d="M410.235 1035.9C532.135 1118.48 704.557 1098.89 804.559 972.536C1015.92 705.477 873.887 32.9088 1265.66 -31.2297C1646.67 -93.6076 1767.02 496.406 1319.87 552.238C1029.46 588.498 638.011 398.83 405.61 557.621C250.8 663.398 232.573 915.529 410.235 1035.9Z" stroke="currentColor" stroke-width="3" stroke-miterlimit="10" stroke-linecap="round" stroke-linejoin="round"/>
<path d="M387.502 1025.14C508.22 1112.58 683.307 1098.24 788.511 973.566C1010.87 710.065 888.54 25.013 1286.99 -27.4274C1674.49 -78.4288 1777.52 522.4 1323.29 564.675C1028.29 592.13 638.233 387.768 398.03 541.05C238.023 643.157 211.563 897.695 387.502 1025.14Z" stroke="currentColor" stroke-width="3" stroke-miterlimit="10" stroke-linecap="round" stroke-linejoin="round"/>
<path d="M364.93 1013.45C484.279 1105.75 661.869 1096.81 772.268 974.027C1005.6 714.515 903.624 17.5624 1308.4 -22.8232C1702.06 -62.1009 1787.18 549.031 1326.3 577.358C1026.97 595.755 638.856 376.602 390.971 524.04C225.848 622.254 190.985 878.926 364.93 1013.45Z" stroke="currentColor" stroke-width="3" stroke-miterlimit="10" stroke-linecap="round" stroke-linejoin="round"/>
<path d="M342.552 1000.84C460.345 1098 640.271 1094.6 755.847 973.911C1000.12 718.818 919.125 10.5773 1329.86 -17.4072C1729.31 -44.6243 1795.99 576.27 1328.88 590.273C1025.52 599.367 639.887 365.345 384.452 506.605C214.299 600.705 170.875 859.233 342.552 1000.84Z" stroke="currentColor" stroke-width="3" stroke-miterlimit="10" stroke-linecap="round" stroke-linejoin="round"/>
<path d="M320.404 987.307C436.451 1089.32 618.538 1091.6 739.268 973.205C994.44 722.968 935.027 4.07571 1351.34 -11.1729C1756.21 -26.0042 1803.91 604.09 1331.03 603.406C1023.92 602.962 641.329 354.014 378.491 488.767C203.407 578.531 151.27 838.626 320.404 987.307Z" stroke="currentColor" stroke-width="3" stroke-miterlimit="10" stroke-linecap="round" stroke-linejoin="round"/>
<path d="M298.522 972.85C412.635 1079.7 596.699 1087.8 722.553 971.902C988.552 726.955 951.317 -1.9232 1372.8 -4.11284C1782.7 -6.24402 1810.92 632.464 1332.74 616.744C1022.18 606.535 643.189 342.624 373.108 470.541C193.198 555.75 132.208 817.12 298.522 972.85Z" stroke="currentColor" stroke-width="3" stroke-miterlimit="10" stroke-linecap="round" stroke-linejoin="round"/>
<path d="M276.945 957.475C388.932 1069.14 574.788 1083.17 705.724 969.989C982.466 730.769 967.978 -7.40247 1394.22 3.77598C1808.75 14.6467 1816.99 661.358 1333.98 630.268C1020.3 610.076 645.473 331.187 368.322 451.945C183.703 532.387 113.729 794.727 276.945 957.475Z" stroke="currentColor" stroke-width="3" stroke-miterlimit="10" stroke-linecap="round" stroke-linejoin="round"/>
<path d="M255.706 941.186C365.377 1057.64 552.83 1077.73 688.802 967.461C976.187 734.404 984.992 -12.3441 1415.56 12.5C1834.31 36.6606 1822.09 690.743 1334.76 643.966C1018.27 613.586 648.184 319.721 364.149 433.002C174.945 508.462 95.8673 771.463 255.706 941.186Z" stroke="currentColor" stroke-width="3" stroke-miterlimit="10" stroke-linecap="round" stroke-linejoin="round"/>
<path d="M234.842 923.989C342.005 1045.19 530.856 1071.45 671.808 964.308C969.718 737.849 1002.34 -16.7317 1436.8 22.0607C1859.33 59.786 1826.2 720.586 1335.06 657.819C1016.09 617.056 651.326 308.242 360.607 413.73C166.95 483.999 78.6584 747.345 234.842 923.989Z" stroke="currentColor" stroke-width="3" stroke-miterlimit="10" stroke-linecap="round" stroke-linejoin="round"/>
<path d="M214.391 905.893C318.854 1031.8 508.898 1064.34 654.766 960.525C963.068 741.097 1020.01 -20.5482 1457.9 32.4609C1883.77 84.0126 1829.29 750.854 1334.87 671.813C1013.78 620.48 654.904 296.764 357.713 394.15C159.745 459.023 62.1408 722.391 214.391 905.893Z" stroke="currentColor" stroke-width="3" stroke-miterlimit="10" stroke-linecap="round" stroke-linejoin="round"/>
<path d="M194.387 886.906C295.96 1017.47 486.987 1056.39 637.701 956.104C956.243 744.139 1037.98 -23.7794 1478.83 43.6992C1907.58 109.323 1831.35 781.511 1334.19 685.928C1011.32 623.852 658.92 285.304 355.483 374.285C153.354 433.559 46.3502 696.622 194.387 886.906Z" stroke="currentColor" stroke-width="3" stroke-miterlimit="10" stroke-linecap="round" stroke-linejoin="round"/>
<path d="M174.867 867.04C273.359 1002.19 465.154 1047.6 620.632 951.041C949.247 746.969 1056.23 -26.4085 1499.56 55.7778C1930.72 135.705 1832.34 812.522 1333.01 700.15C1008.72 627.17 663.377 273.879 353.932 354.158C147.8 407.635 31.3192 670.059 174.867 867.04Z" stroke="currentColor" stroke-width="3" stroke-miterlimit="10" stroke-linecap="round" stroke-linejoin="round"/>
<path d="M155.867 846.305C251.089 985.989 443.431 1037.95 603.588 945.331C942.091 749.577 1074.74 -28.4227 1520.06 68.6928C1953.15 163.139 1832.26 843.851 1331.32 714.458C1005.99 630.424 668.278 262.505 353.075 333.791C143.107 381.277 17.0854 642.724 155.867 846.305Z" stroke="currentColor" stroke-width="3" stroke-miterlimit="10" stroke-linecap="round" stroke-linejoin="round"/>
<path d="M137.421 824.716C229.184 968.855 421.849 1027.46 586.588 938.972C934.776 751.958 1093.48 -29.8077 1540.29 82.4416C1974.82 191.607 1831.08 875.459 1329.11 728.836C1003.11 633.612 673.619 251.199 352.922 313.208C139.294 354.514 3.67957 614.64 137.421 824.716Z" stroke="currentColor" stroke-width="3" stroke-miterlimit="10" stroke-linecap="round" stroke-linejoin="round"/>
<path d="M119.564 802.285C207.683 950.798 400.44 1016.11 569.658 931.958C927.313 754.101 1112.44 -30.5522 1560.22 97.0195C1995.69 221.085 1828.78 907.309 1326.38 743.263C1000.1 636.725 679.405 239.975 353.487 292.432C136.382 327.376 -8.86435 585.835 119.564 802.285Z" stroke="currentColor" stroke-width="3" stroke-miterlimit="10" stroke-linecap="round" stroke-linejoin="round"/>
<path d="M102.331 779.031C186.619 931.83 379.236 1003.92 552.823 924.291C919.708 756.004 1131.6 -30.6401 1579.82 112.423C2015.72 251.555 1825.36 939.361 1323.12 757.724C996.947 639.761 685.634 228.853 354.783 271.492C134.392 299.895 -20.5141 556.334 102.331 779.031Z" stroke="currentColor" stroke-width="3" stroke-miterlimit="10" stroke-linecap="round" stroke-linejoin="round"/>
<path d="M85.7557 754.971C166.03 911.96 358.27 990.874 536.104 915.969C911.969 757.657 1150.93 -30.0637 1599.05 128.643C2034.86 282.99 1820.78 971.575 1319.33 772.197C993.665 642.712 692.305 217.849 356.82 250.41C133.342 272.099 -31.2398 526.166 85.7557 754.971Z" stroke="currentColor" stroke-width="3" stroke-miterlimit="10" stroke-linecap="round" stroke-linejoin="round"/>
<path d="M69.874 730.122C145.954 891.199 337.574 976.987 519.531 906.99C904.107 759.053 1170.41 -28.8117 1617.89 145.674C2053.08 315.365 1815.04 1003.91 1315 786.664C990.251 645.573 699.418 206.98 359.609 229.213C133.251 244.024 -41.0079 495.359 69.874 730.122Z" stroke="currentColor" stroke-width="3" stroke-miterlimit="10" stroke-linecap="round" stroke-linejoin="round"/>
<path d="M54.7177 704.504C126.425 869.559 317.183 962.259 503.126 897.359C896.129 760.188 1190.02 -26.8719 1636.3 163.505C2070.33 348.652 1808.14 1036.33 1310.13 801.105C986.71 648.34 706.971 196.262 363.159 207.928C134.134 215.7 -49.7911 463.946 54.7177 704.504Z" stroke="currentColor" stroke-width="3" stroke-miterlimit="10" stroke-linecap="round" stroke-linejoin="round"/>
<path d="M40.318 678.14C107.476 847.054 297.125 946.698 486.913 887.072C888.042 761.054 1209.72 -24.2383 1654.25 182.126C2086.57 382.822 1800.04 1068.78 1304.72 815.499C983.04 651.007 714.959 185.712 367.476 186.582C136.005 187.162 -57.562 431.956 40.318 678.14Z" stroke="currentColor" stroke-width="3" stroke-miterlimit="10" stroke-linecap="round" stroke-linejoin="round"/>
<path d="M26.7103 651.052C89.1481 823.701 277.437 930.308 470.92 876.137C879.857 761.648 1229.51 -20.9009 1671.71 201.528C2101.77 417.846 1790.76 1101.23 1298.77 829.829C979.25 653.569 723.384 175.349 372.571 165.203C138.883 158.446 -64.2894 399.424 26.7103 651.052Z" stroke="currentColor" stroke-width="3" stroke-miterlimit="10" stroke-linecap="round" stroke-linejoin="round"/>
</mask>
<g mask="url(#mask0_852_13)">
<rect x="-489.557" y="-320.914" width="2858.38" height="1686.82" fill="white"/>
</g>
</g>
<defs>
<clipPath id="clip0_852_13">
<rect width="940" height="1107" fill="white"/>
</clipPath>
</defs>
</svg>
